<svg height="30" viewBox="0 0 24 30" width="24" xmlns="http://www.w3.org/2000/svg"><g fill="none" fill-rule="evenodd" transform="translate(1 1)"><path d="m11 27.9c-1.6-3-8-9.4-9.9-13.5-.6-1.3-1-2.7-1-4.2.1-5.5 5-10.1 10.9-10.1s10.9 4.6 10.9 10.1c0 1.5-.4 2.9-1 4.2-1.9 4.1-8.3 10.5-9.9 13.5z" fill="#aa040b" fill-rule="nonzero"/><g stroke="#890309" stroke-linecap="round" stroke-width="2"><path d="m1.1 14.4c-.6-1.3-1-2.7-1-4.2.1-5.5 5-10.1 10.9-10.1s10.9 4.6 10.9 10.1c0 1.5-.4 2.9-1 4.2"/><path d="m1.1 14.4c1.9 4.1 8.3 10.5 9.9 13.5"/><path d="m20.9 14.4c-1.9 4.1-8.3 10.5-9.9 13.5"/></g></g></svg>